{"title":"Saw 7 2010 R5 Xvid (CAM AUDIO) LKRG","uid":5964345,"size":675022755,"categoryP":"video","categoryS":"movies","magnet":"?xt=urn:btih:0f1b6673c66fd5ba8dd2fd0a20ddd26152145e47&amp;dn=Saw+7+2010+R5+Xvid+%28CAM+AUDIO%29+LKRG&amp;tr=udp%3A%2F%2Ftracker.openbittorrent.com%3A80&amp;tr=udp%3A%2F%2Fopen.demonii.com%3A1337&amp;tr=udp%3A%2F%2Ftracker.coppersurfer.tk%3A6969&amp;tr=udp%3A%2F%2Fexodus.desync.com%3A6969","seeders":1,"leechers":1,"uploader":".BONE.","files":3,"time":1290060919,"description":"Plot: As a deadly battle rages over Jigsaw's brutal legacy, a group of Jigsaw survivors gathers to seek the support of self-help guru\nand fellow survivor Bobby Dagen, a man whose own dark secrets unleash a\nnew wave of terror.\n\nCast: Tobin Bell ...\nJigsaw / John\nCostas Mandylor Costas Mandylor ...\nHoffman\nBetsy Russell Betsy Russell ...\nJill\nCary Elwes Cary Elwes ...\nDr. Gordon\nSean Patrick Flanery Sean Patrick Flanery ...\nBobby\nChad Donella Chad Donella ...\nGibson\nGina Holden Gina Holden ...\nJoyce\nLaurence Anthony Laurence Anthony ...\nRogers\n\n\nFormat;Avi\n\nFile Size:628mb\n\nVideo: ID : 0\nFormat : MPEG-4 Visual\nFormat profile : Simple@L3\nFormat settings, BVOP : No\nFormat settings, QPel : No\nFormat settings, GMC : No warppoints\nFormat settings, Matrix : Default (H.263)\nCodec ID : XVID\nCodec ID/Hint : XviD\nDuration : 1h 21mn\nBit rate : 946 Kbps\nWidth : 700 pixels\nHeight : 384 pixels\nDisplay aspect ratio : 16:9\nFrame rate : 25.000 fps\nColor space : YUV\nChroma subsampling : 4:2:0\nBit depth : 8 bits\nScan type : Progressive\nBits/(Pixel*Frame) : 0.141\nStream size : 551 MiB (88%)\nWriting library : XviD 1.2.1 (UTC 2008-12-04)\n\nAudio: ID : 1\nFormat : MPEG Audio\nFormat version : Version 1\nFormat profile : Layer 3\nMode : Joint stereo\nMode extension : MS Stereo\nCodec ID : 55\nCodec ID/Hint : MP3\nDuration : 1h 21mn\nBit rate mode : Constant\nBit rate : 128 Kbps\nChannel(s) : 2 channels\nSampling rate : 48.0 KHz\nVideo delay : 18s 200ms\nStream size : 74.5 MiB (12%)\nAlignment : Split accross interleaves\nInterleave, duration : 495 ms (12.39 video frames)\nInterleave, preload duration : 500 ms\n\nDuration:1:21\n\nRelease Date:2010\n\nLanguage:English\n","torrent":{"xt":"urn:btih:0f1b6673c66fd5ba8dd2fd0a20ddd26152145e47","amp;dn":"Saw+7+2010+R5+Xvid+%28CAM+AUDIO%29+LKRG","amp;tr":["udp%3A%2F%2Ftracker.openbittorrent.com%3A80","udp%3A%2F%2Fopen.demonii.com%3A1337","udp%3A%2F%2Ftracker.coppersurfer.tk%3A6969","udp%3A%2F%2Fexodus.desync.com%3A6969"],"infoHash":"0f1b6673c66fd5ba8dd2fd0a20ddd26152145e47","infoHashBuffer":{"type":"Buffer","data":[15,27,102,115,198,111,213,186,141,210,253,10,32,221,210,97,82,20,94,71]},"announce":[],"urlList":[]}}